<svg width="133" height="107" viewBox="0 0 133 107" fill="none" xmlns="http://www.w3.org/2000/svg">
<g clip-path="url(#clip0_81_6014)">
<path d="M118.772 51.9627C118.772 52.9173 118.746 53.8652 118.695 54.8063C118.507 58.3251 117.962 61.8155 117.066 65.2233C117.065 65.2247 117.065 65.2247 117.066 65.2262C116.949 65.6769 116.824 66.1262 116.692 66.5712C116.686 66.5927 116.681 66.6128 116.673 66.6329C116.478 67.3004 116.27 67.9616 116.048 68.6167V68.6181C112.564 78.9097 105.947 87.8498 97.1275 94.1826C88.3078 100.515 77.7284 103.922 66.8753 103.925C42.3276 103.925 21.7624 86.8625 16.3634 63.9343C15.4404 60.0109 14.9757 55.9935 14.9785 51.9627C14.9785 51.1618 14.9967 50.3651 15.033 49.5727C15.4632 39.8861 18.6053 30.5158 24.1006 22.532C24.1666 22.4344 24.2339 22.3368 24.3028 22.2406C33.6814 8.79491 49.2534 0 66.8753 0C91.7801 0 112.586 17.564 117.612 40.996L117.614 40.9989C117.938 42.509 118.195 44.042 118.385 45.598C118.644 47.7097 118.773 49.8352 118.772 51.9627Z" fill="#F2F2F2"/>
<path d="M132.286 95.5456C131.898 96.9487 131.293 98.2822 130.493 99.4973C128.703 102.206 126.143 104.277 123.329 105.935C123.134 106.052 122.936 106.165 122.738 106.277H120.764L120.695 106.119V106.118L120.615 105.935L120.605 105.914L120.601 105.935L120.522 106.277H119.553C119.472 106.164 119.393 106.05 119.316 105.935C119.203 105.767 119.094 105.598 118.991 105.426C118.808 105.124 118.646 104.812 118.503 104.49C118.486 104.454 118.472 104.418 118.457 104.382L118.522 104.312L118.254 103.138L118.793 103.049L118.202 101.224C118.224 101.157 118.248 101.089 118.274 101.022C118.605 100.182 119.227 99.5548 119.965 99.028C120.725 98.4839 121.61 98.0476 122.423 97.594C122.804 97.3801 123.18 97.1547 123.545 96.9164V96.915C124.013 96.6121 124.466 96.2882 124.906 95.9432C124.913 95.9384 124.92 95.9331 124.927 95.9274C124.933 95.9231 124.939 95.9183 124.944 95.9131C126.915 94.3713 128.583 92.4765 129.863 90.3249L129.864 90.3248L129.864 90.3245L129.865 90.324L129.865 90.3235C129.908 90.2546 129.948 90.1857 129.988 90.1154V90.1139C130.512 89.2113 130.963 88.268 131.337 87.2933V87.2919C131.366 87.2201 131.391 87.1483 131.419 87.0765C131.456 87.1397 131.492 87.2028 131.526 87.266L131.527 87.2661L131.527 87.2664L131.527 87.2669L131.528 87.2674C132.918 89.7579 133.05 92.758 132.286 95.5456Z" fill="#F0F0F0"/>
<path d="M131.528 87.2675C131.542 88.5966 131.404 89.923 131.116 91.2207C130.987 91.8145 130.826 92.401 130.635 92.9777C130.262 94.1058 129.776 95.1928 129.182 96.2217C129.149 96.2777 129.118 96.3323 129.083 96.3868V96.3883C128.83 96.8163 128.555 97.2312 128.259 97.6313C127.812 98.2687 127.259 98.8251 126.625 99.2763C126.107 99.6191 125.521 99.8458 124.907 99.941C124.793 99.9625 124.675 99.9783 124.556 99.9926C124.082 100.049 123.591 100.07 123.121 100.171C122.883 100.218 122.651 100.292 122.43 100.393C121.673 100.745 121.247 101.481 121.061 102.268C121.028 102.406 121.002 102.545 120.982 102.684C120.826 103.753 120.998 104.865 120.909 105.935C120.899 106.049 120.886 106.164 120.87 106.277H120.764L120.695 106.119V106.118C120.702 106.057 120.708 105.997 120.714 105.935C120.748 105.409 120.753 104.882 120.727 104.355C120.721 104.118 120.717 103.88 120.72 103.642C120.723 103.451 120.73 103.26 120.744 103.07V103.069C120.754 102.951 120.766 102.835 120.781 102.719C120.827 102.363 120.914 102.013 121.042 101.678C121.167 101.332 121.363 101.017 121.618 100.753C121.873 100.489 122.181 100.281 122.522 100.145C122.73 100.067 122.944 100.007 123.163 99.9654C123.643 99.8735 124.139 99.8505 124.622 99.7902C124.674 99.7845 124.725 99.7773 124.775 99.7687C124.84 99.7587 124.903 99.7472 124.966 99.7357C125.598 99.6233 126.195 99.3643 126.709 98.9792C127.32 98.4949 127.851 97.9175 128.283 97.2682C128.519 96.9308 128.742 96.5863 128.95 96.2318C128.95 96.2316 128.95 96.2314 128.95 96.2312C128.95 96.2311 128.95 96.2309 128.95 96.2308C128.951 96.2306 128.951 96.2305 128.951 96.2305C128.951 96.2304 128.951 96.2304 128.951 96.2304C128.962 96.2131 128.972 96.1973 128.982 96.1801L128.983 96.1772C129.875 94.6515 130.526 92.9971 130.913 91.2724C130.926 91.2092 130.94 91.146 130.954 91.0829C131.22 89.8376 131.349 88.5668 131.337 87.2933V87.2919C131.337 87.2316 131.336 87.1728 131.334 87.1125C131.331 86.989 131.522 86.9617 131.525 87.0852C131.526 87.1455 131.528 87.2058 131.526 87.2661C131.526 87.2661 131.527 87.2661 131.527 87.2662C131.527 87.2662 131.527 87.2663 131.527 87.2665C131.527 87.2666 131.528 87.2668 131.528 87.2669C131.528 87.2671 131.528 87.2673 131.528 87.2675Z" fill="white"/>
<path d="M129.002 96.3479C129.548 96.6257 130.175 96.7001 130.771 96.5577C131.367 96.4153 131.893 96.0654 132.255 95.5705C132.328 95.4701 132.176 95.3519 132.103 95.4524C131.766 95.9139 131.276 96.2398 130.721 96.3712C130.166 96.5027 129.582 96.4311 129.075 96.1694C128.965 96.1126 128.892 96.2915 129.002 96.3479Z" fill="white"/>
<path d="M124.985 99.7928C124.585 98.6041 124.648 97.3085 125.161 96.1642C125.212 96.0508 125.033 95.9778 124.983 96.091C124.452 97.2827 124.389 98.6312 124.807 99.8673C124.847 99.9851 125.024 99.91 124.985 99.7928Z" fill="white"/>
<path d="M131.01 91.1005C130.776 91.0371 130.562 90.9166 130.386 90.7497C130.211 90.5829 130.079 90.375 130.003 90.1446C129.965 90.0264 129.787 90.1016 129.826 90.2191C129.91 90.4732 130.056 90.7026 130.25 90.8874C130.443 91.0722 130.679 91.2066 130.937 91.279C130.961 91.2879 130.987 91.2874 131.01 91.2776C131.034 91.2678 131.052 91.2495 131.063 91.2264C131.072 91.2027 131.072 91.1762 131.062 91.1526C131.052 91.1291 131.034 91.1103 131.01 91.1005Z" fill="white"/>
<path d="M123.546 96.915V96.9165C123.501 97.9415 123.373 98.9612 123.163 99.9653V99.9668C123.152 100.036 123.136 100.103 123.121 100.171C122.775 101.724 122.29 103.242 121.672 104.708C121.502 105.121 121.323 105.531 121.136 105.935C121.084 106.05 121.031 106.164 120.977 106.277H120.765L120.696 106.119V106.118L120.616 105.935L120.605 105.914L120.601 105.935L120.522 106.277H118.472L118.074 105.935L117.493 105.437L118.305 104.55L118.438 104.404L118.458 104.382L118.522 104.312L118.254 103.138L118.793 103.049L118.203 101.224L117.923 100.362L117.853 100.145L117.444 98.883L116.211 99.1141L116.011 98.4108C116.38 97.5531 116.688 96.6699 116.931 95.7681C116.933 95.761 116.935 95.7552 116.937 95.748C117.588 93.319 117.784 90.79 117.513 88.2895V88.2881C117.505 88.2077 117.495 88.1259 117.483 88.0469V88.0441C117.36 87.0078 117.153 85.9834 116.864 84.9808C116.844 84.9048 116.821 84.8301 116.799 84.7555C116.865 84.7842 116.93 84.8115 116.996 84.8402L116.997 84.8416H117C117.105 84.8875 117.209 84.9364 117.311 84.988C119.757 86.178 121.556 88.4115 122.578 90.9867C122.581 90.9939 122.584 90.9996 122.587 91.0068C123.12 92.3568 123.438 93.7824 123.529 95.2313C123.563 95.7919 123.569 96.3539 123.546 96.915Z" fill="#F0F0F0"/>
<path d="M119.826 106.277H119.599C119.528 106.161 119.45 106.047 119.373 105.935C119.249 105.762 119.122 105.592 118.991 105.426C118.878 105.282 118.765 105.14 118.652 104.998C118.534 104.85 118.418 104.702 118.305 104.55L118.438 104.404C118.46 104.432 118.481 104.461 118.504 104.49C118.871 104.974 119.268 105.439 119.608 105.935C119.684 106.047 119.757 106.161 119.826 106.277Z" fill="white"/>
<path d="M116.752 84.8356C116.789 84.883 116.828 84.9318 116.864 84.9806C117.143 85.3438 117.407 85.7184 117.656 86.1046C118.1 86.7859 118.494 87.4982 118.835 88.2362C118.862 88.2936 118.889 88.3525 118.915 88.4113C119.645 90.0238 120.121 91.7399 120.326 93.4985C120.329 93.5157 120.33 93.5315 120.332 93.5487C120.379 93.9593 120.409 94.3712 120.423 94.7846C120.469 95.5631 120.392 96.344 120.195 97.0986C120.167 97.1976 120.135 97.2952 120.101 97.39C120.014 97.6221 119.906 97.8456 119.778 98.0574C119.686 98.212 119.583 98.3602 119.471 98.501C119.404 98.5871 119.334 98.6718 119.259 98.7536C119.216 98.801 119.172 98.8484 119.127 98.8957C119.09 98.9316 119.054 98.9689 119.017 99.0048C118.63 99.3809 118.203 99.7297 117.853 100.145L117.923 100.361C118.26 99.9335 118.694 99.579 119.086 99.2058C119.331 98.9744 119.555 98.7207 119.754 98.4479C119.78 98.4105 119.807 98.3732 119.831 98.3345C119.964 98.1402 120.079 97.934 120.174 97.7187C120.223 97.611 120.267 97.5005 120.307 97.3856C120.541 96.6435 120.648 95.8669 120.623 95.0889C120.618 94.5906 120.588 94.0929 120.534 93.5975C120.528 93.533 120.521 93.4698 120.512 93.4052C120.367 92.2262 120.102 91.0651 119.721 89.94C119.239 88.5127 118.576 87.1533 117.748 85.895C117.512 85.5347 117.261 85.183 116.996 84.84C116.961 84.7926 116.925 84.7466 116.888 84.6993C116.812 84.6017 116.676 84.738 116.752 84.8356Z" fill="white"/>
<path d="M120.444 93.6157C121.047 93.5082 121.592 93.1895 121.983 92.7165C122.373 92.2436 122.582 91.6471 122.574 91.0337C122.573 91.0086 122.563 90.9848 122.545 90.9672C122.528 90.9496 122.504 90.9396 122.479 90.9393C122.454 90.939 122.43 90.9484 122.411 90.9656C122.393 90.9828 122.382 91.0063 122.381 91.0313C122.39 91.6025 122.195 92.1581 121.831 92.5978C121.466 93.0375 120.957 93.3323 120.395 93.4291C120.273 93.4502 120.322 93.6367 120.444 93.6157Z" fill="white"/>
<path d="M119.307 98.788C118.274 98.0795 117.545 97.007 117.266 95.7844C117.239 95.6633 117.052 95.7124 117.08 95.8334C117.372 97.1052 118.133 98.2197 119.21 98.9546C119.313 99.0245 119.41 98.8575 119.307 98.788Z" fill="white"/>
<path d="M118.892 88.2154C118.667 88.3057 118.423 88.3387 118.183 88.3114C117.942 88.2841 117.712 88.1974 117.513 88.0591C117.411 87.9878 117.315 88.1549 117.416 88.2257C117.636 88.3775 117.891 88.4729 118.156 88.5037C118.422 88.5344 118.691 88.4995 118.941 88.402C118.965 88.3948 118.985 88.3786 118.998 88.3567C119.011 88.3348 119.015 88.3089 119.009 88.2842C119.003 88.2595 118.987 88.2384 118.965 88.2256C118.943 88.2127 118.916 88.209 118.892 88.2154Z" fill="white"/>
<path d="M91.5431 22.5326H0.892399C0.854347 22.5317 0.818135 22.516 0.791519 22.4888C0.764903 22.4615 0.75 22.4249 0.75 22.3868C0.75 22.3487 0.764903 22.3121 0.791519 22.2849C0.818135 22.2576 0.854347 22.2419 0.892399 22.2411H91.5431C91.5812 22.2419 91.6174 22.2576 91.644 22.2849C91.6706 22.3121 91.6855 22.3487 91.6855 22.3868C91.6855 22.4249 91.6706 22.4615 91.644 22.4888C91.6174 22.516 91.5812 22.5317 91.5431 22.5326Z" fill="#CACACA"/>
<path d="M4.09703 20.4922C4.96206 20.4922 5.66331 19.7744 5.66331 18.889C5.66331 18.0035 4.96206 17.2858 4.09703 17.2858C3.23201 17.2858 2.53076 18.0035 2.53076 18.889C2.53076 19.7744 3.23201 20.4922 4.09703 20.4922Z" fill="#3F3D56"/>
<path d="M9.50817 20.4922C10.3732 20.4922 11.0744 19.7744 11.0744 18.889C11.0744 18.0035 10.3732 17.2858 9.50817 17.2858C8.64314 17.2858 7.94189 18.0035 7.94189 18.889C7.94189 19.7744 8.64314 20.4922 9.50817 20.4922Z" fill="#3F3D56"/>
<path d="M14.9188 20.4922C15.7838 20.4922 16.4851 19.7744 16.4851 18.889C16.4851 18.0035 15.7838 17.2858 14.9188 17.2858C14.0538 17.2858 13.3525 18.0035 13.3525 18.889C13.3525 19.7744 14.0538 20.4922 14.9188 20.4922Z" fill="#3F3D56"/>
<path d="M88.3007 17.6831H84.4572C84.381 17.6846 84.3084 17.716 84.2551 17.7705C84.2018 17.8249 84.1719 17.8982 84.1719 17.9745C84.1719 18.0508 84.2018 18.124 84.2551 18.1785C84.3084 18.233 84.381 18.2644 84.4572 18.2659H88.3007C88.3769 18.2644 88.4494 18.233 88.5028 18.1785C88.5561 18.124 88.586 18.0508 88.586 17.9745C88.586 17.8982 88.5561 17.8249 88.5028 17.7705C88.4494 17.716 88.3769 17.6846 88.3007 17.6831Z" fill="#3F3D56"/>
<path d="M88.3007 18.777H84.4572C84.381 18.7785 84.3084 18.8099 84.2551 18.8643C84.2018 18.9188 84.1719 18.9921 84.1719 19.0684C84.1719 19.1447 84.2018 19.2179 84.2551 19.2724C84.3084 19.3269 84.381 19.3583 84.4572 19.3598H88.3007C88.3769 19.3583 88.4494 19.3269 88.5028 19.2724C88.5561 19.2179 88.586 19.1447 88.586 19.0684C88.586 18.9921 88.5561 18.9188 88.5028 18.8643C88.4494 18.8099 88.3769 18.7785 88.3007 18.777Z" fill="#3F3D56"/>
<path d="M88.3007 19.8693H84.4572C84.381 19.8708 84.3084 19.9021 84.2551 19.9566C84.2018 20.0111 84.1719 20.0844 84.1719 20.1607C84.1719 20.237 84.2018 20.3102 84.2551 20.3647C84.3084 20.4192 84.381 20.4505 84.4572 20.452H88.3007C88.3769 20.4505 88.4494 20.4192 88.5028 20.3647C88.5561 20.3102 88.586 20.237 88.586 20.1607C88.586 20.0844 88.5561 20.0111 88.5028 19.9566C88.4494 19.9021 88.3769 19.8708 88.3007 19.8693Z" fill="#3F3D56"/>
<path d="M24.6423 28.4718H20.5723C18.2769 32.9967 16.661 37.836 15.7769 42.8333H24.6423C24.9249 42.8338 25.2047 42.7785 25.4658 42.6704C25.727 42.5624 25.9642 42.4038 26.164 42.2038C26.3638 42.0037 26.5222 41.7662 26.63 41.5047C26.7379 41.2433 26.7932 40.9631 26.7927 40.6802V30.6235C26.792 30.0528 26.5651 29.5057 26.162 29.1023C25.7588 28.6989 25.2123 28.4722 24.6423 28.4718Z" fill="#CCCCCC"/>
<path d="M54.7926 28.4718H36.3521C35.7821 28.4722 35.2356 28.6989 34.8324 29.1023C34.4293 29.5058 34.2024 30.0528 34.2017 30.6235V40.6802C34.2024 41.251 34.4291 41.7983 34.8323 42.2019C35.2354 42.6056 35.782 42.8326 36.3521 42.8333H54.7926C55.3628 42.8326 55.9093 42.6056 56.3125 42.2019C56.7156 41.7983 56.9424 41.251 56.9431 40.6802V30.6235C56.9423 30.0528 56.7155 29.5058 56.3123 29.1023C55.9091 28.6989 55.3626 28.4722 54.7926 28.4718Z" fill="#CCCCCC"/>
<path d="M84.943 28.4718H66.5025C65.9325 28.4722 65.386 28.6989 64.9828 29.1023C64.5796 29.5058 64.3528 30.0528 64.3521 30.6235V40.6802C64.3527 41.251 64.5795 41.7983 64.9827 42.2019C65.3858 42.6056 65.9324 42.8326 66.5025 42.8333H84.943C85.5132 42.8326 86.0597 42.6056 86.4629 42.2019C86.866 41.7983 87.0928 41.251 87.0935 40.6802V30.6235C87.0927 30.0528 86.8659 29.5058 86.4627 29.1023C86.0595 28.6989 85.513 28.4722 84.943 28.4718Z" fill="#CCCCCC"/>
<path d="M24.6425 49.5728H15.033C14.9972 50.3651 14.979 51.1618 14.9785 51.9628C14.9757 55.9935 15.4404 60.0109 16.3634 63.9343H24.6425C25.2126 63.9336 25.7592 63.7065 26.1623 63.3029C26.5655 62.8992 26.7922 62.352 26.7929 61.7811V51.7245C26.7922 51.1538 26.5653 50.6067 26.1622 50.2033C25.759 49.7999 25.2125 49.5731 24.6425 49.5728Z" fill="#CCCCCC"/>
<path d="M54.7926 49.5728H36.3521C35.7821 49.5731 35.2356 49.7999 34.8324 50.2033C34.4293 50.6067 34.2024 51.1538 34.2017 51.7245V61.7811C34.2024 62.352 34.4291 62.8992 34.8323 63.3029C35.2354 63.7065 35.782 63.9336 36.3521 63.9343H54.7926C55.3628 63.9336 55.9093 63.7065 56.3125 63.3029C56.7156 62.8992 56.9424 62.352 56.9431 61.7811V51.7245C56.9423 51.1538 56.7155 50.6067 56.3123 50.2033C55.9091 49.7999 55.3626 49.5731 54.7926 49.5728Z" fill="#CCCCCC"/>
<path d="M84.943 49.5728H66.5025C65.9325 49.5731 65.386 49.7999 64.9828 50.2033C64.5796 50.6067 64.3528 51.1538 64.3521 51.7245V61.7811C64.3527 62.352 64.5795 62.8992 64.9827 63.3029C65.3858 63.7065 65.9324 63.9336 66.5025 63.9343H84.943C85.0018 63.9343 85.0606 63.9314 85.1194 63.9257C85.3498 63.9087 85.5756 63.8529 85.7874 63.7606C86.1715 63.596 86.4994 63.3232 86.7313 62.9753C86.9632 62.6274 87.0891 62.2195 87.0935 61.8012V51.7245C87.0927 51.1538 86.8659 50.6067 86.4627 50.2033C86.0595 49.7999 85.513 49.5731 84.943 49.5728Z" fill="#CCCCCC"/>
<path d="M26 47C28.7614 47 31 44.7614 31 42C31 39.2386 28.7614 37 26 37C23.2386 37 21 39.2386 21 42C21 44.7614 23.2386 47 26 47Z" fill="#6C63FF"/>
<path d="M24.1294 44L28.1294 40" stroke="white" stroke-linecap="round"/>
<path d="M24 40.1223L28 44.1223" stroke="white" stroke-linecap="round"/>
<path d="M117.061 64.413L115.726 51.4706L115.373 46.1439L119.111 45.4672C119.111 45.4672 119.671 49.129 120.16 51.2779C120.643 53.3985 119.516 64.1288 119.487 64.4118C119.761 64.6576 119.955 64.981 120.042 65.3393C120.128 65.6976 120.105 66.0739 119.973 66.4183C119.842 66.7628 119.609 67.0593 119.306 67.2685C119.003 67.4777 118.644 67.5898 118.275 67.59C117.907 67.5901 117.547 67.4784 117.244 67.2695C116.941 67.0605 116.708 66.7643 116.576 66.42C116.444 66.0756 116.42 65.6994 116.507 65.341C116.593 64.9826 116.787 64.659 117.061 64.413Z" fill="#A0616A"/>
<path d="M107.494 102.938L105.641 103.363L103.124 96.4058L105.86 95.7795L107.494 102.938Z" fill="#A0616A"/>
<path d="M107.829 102.224L107.356 102.332L107.308 102.344L105.144 101.991L105.081 101.98L104.178 103.06C103.561 103.201 103.025 103.582 102.689 104.119C102.352 104.656 102.242 105.304 102.383 105.922L102.386 105.935L102.402 105.998L102.677 105.935L108.379 104.629L107.829 102.224Z" fill="#2F2E41"/>
<path d="M118.545 104.152H116.644L115.739 96.8083L118.546 96.8085L118.545 104.152Z" fill="#A0616A"/>
<path d="M118.495 103.531L118.329 103.463L116.465 102.704L116.405 102.68L115.285 103.531C114.972 103.531 114.662 103.592 114.372 103.712C114.083 103.832 113.819 104.008 113.598 104.23C113.376 104.452 113.2 104.715 113.08 105.005C112.96 105.295 112.899 105.606 112.898 105.919V105.997L118.147 105.998H119.03V103.531H118.495Z" fill="#2F2E41"/>
<path d="M115.653 64.8482L117.252 80.0611C117.252 80.0611 119.381 95.2935 118.982 97.3952C118.582 99.497 119.082 99.7973 119.082 99.7973L115.433 99.5371C115.433 99.5371 115.533 98.236 114.934 97.6355C114.334 97.035 114.634 95.2335 114.634 95.2335L107.557 70.4529L103.258 83.4639C103.258 83.4639 105.974 94.0151 105.874 94.2153C105.774 94.4154 107.594 98.8087 107.594 98.8087L103.521 100.161C103.521 100.161 104.021 98.5596 103.322 98.0591C102.622 97.5587 102.022 97.9591 102.622 97.0583C103.222 96.1575 97.8965 89.5423 98.0136 85.279C98.0488 83.9965 98.0914 82.6204 98.1426 81.2106C98.4134 73.7503 98.9247 65.3439 99.8598 64.8482C101.559 63.9475 115.653 64.8482 115.653 64.8482Z" fill="#2F2E41"/>
<path d="M108.079 34.0461C110.252 34.0461 112.013 32.2827 112.013 30.1075C112.013 27.9322 110.252 26.1688 108.079 26.1688C105.907 26.1688 104.146 27.9322 104.146 30.1075C104.146 32.2827 105.907 34.0461 108.079 34.0461Z" fill="#A0616A"/>
<path d="M121.213 54.1666L115.871 55.5242L115.908 54.023L115.503 53.5924L114.693 49.3439L113.833 38.3446L116.785 39.912L116.788 39.9148C117.304 40.4825 117.735 41.1217 118.068 41.8124C119.181 44.0774 120.25 49.0661 120.809 51.9637C120.828 52.0245 120.866 52.078 120.916 52.1173C121.193 52.3724 121.374 52.7157 121.429 53.089C121.483 53.4623 121.406 53.8429 121.213 54.1666Z" fill="#3F3D56"/>
<path d="M89.6483 59.034C89.6483 59.034 97.021 51.2512 97.0898 51.1045C97.6048 47.1886 99.0861 45.4612 99.3081 45.6488L103.131 46.9749C103.131 46.9749 101.994 50.5806 101.224 52.7223C100.488 54.7688 92.0091 59.7674 91.8676 60.0142C92.0196 60.35 92.0661 60.7242 92.001 61.0871C91.936 61.45 91.7624 61.7846 91.5033 62.0466C91.2442 62.3086 90.9118 62.4856 90.55 62.5543C90.1882 62.623 89.8141 62.5802 89.4772 62.4314C89.1402 62.2825 88.8564 62.0348 88.6631 61.721C88.4699 61.4071 88.3763 61.0419 88.3949 60.6737C88.4134 60.3054 88.5432 59.9515 88.767 59.6587C88.9908 59.3659 89.2981 59.1481 89.6483 59.034Z" fill="#A0616A"/>
<path d="M104.968 39.053C104.968 39.053 101.658 37.4287 100.374 40.6189C99.6699 42.42 97.8698 46.791 96.9728 49.4817C96.9668 49.4988 96.9586 49.5151 96.9483 49.53C96.7084 49.8869 96.5789 50.3068 96.5761 50.7371C96.5764 50.7684 96.5732 50.7997 96.5664 50.8302C96.5664 50.8302 100.204 51.5398 101.286 53.4489L101.715 52.9826L101.791 52.6559L104.968 39.053Z" fill="#3F3D56"/>
<path d="M117.012 66.5063C109.394 68.0815 99.2988 65.3733 99.2988 65.3733L101.992 53.6846L101.034 41.4522C100.918 39.9563 101.768 38.5541 103.092 38.0572L104.92 37.3717L106.431 35.2059L110.747 35.3477L112.472 37.6215L113.833 38.3447L116.785 39.9121L116.798 39.9186V39.9251L115.872 48.9212L115.313 54.3454C115.313 54.3454 117.01 60.446 116.662 61.2551C116.313 62.0629 116.616 61.6726 116.701 62.1045C116.785 62.5364 117.043 62.5637 117.082 63.4144C117.123 64.2638 117.012 66.5063 117.012 66.5063Z" fill="#3F3D56"/>
<path d="M112.347 28.7049C112.036 28.3978 112.504 27.5849 112.415 27.1567C112.314 26.6658 111.774 26.6514 111.645 26.167C111.506 25.6459 110.952 25.3622 110.439 25.1971C109.125 24.776 107.722 24.7117 106.375 25.0107C105.779 25.1565 105.192 25.3375 104.617 25.553C104.22 25.6928 104.603 25.3123 104.206 25.4521C104.056 25.4857 103.923 25.5737 103.834 25.6993C103.763 25.8343 103.859 26.0503 104.009 26.023C103.525 26.2369 103.04 26.4508 102.556 26.6647C102.827 26.9496 103.099 27.2346 103.371 27.5196C102.985 27.4095 102.573 27.8706 102.725 28.2426C102.786 28.36 102.875 28.4608 102.984 28.5362C103.093 28.6116 103.218 28.6594 103.35 28.6755C103.786 28.7605 103.455 29.1763 103.899 29.1682C104.344 29.1601 107.443 28.2479 107.659 28.6369C107.813 28.9138 107.796 29.2807 108.016 29.5089C108.297 29.8009 108.788 29.6941 109.146 29.5041C109.503 29.314 109.866 29.0528 110.269 29.0983C110.689 29.1459 111.006 29.9233 111.11 30.3338C111.213 30.7443 111.148 31.1762 111.082 31.5945C110.996 32.1437 110.13 32.693 110.043 33.2422C111.004 33.5083 112.035 32.6616 112.415 31.1891C112.377 30.2582 113.009 29.3592 112.347 28.7049Z" fill="#2F2E41"/>
<path d="M87 68C89.7614 68 92 65.7614 92 63C92 60.2386 89.7614 58 87 58C84.2386 58 82 60.2386 82 63C82 65.7614 84.2386 68 87 68Z" fill="#6C63FF"/>
<path d="M85.1289 65L89.1289 61" stroke="white" stroke-linecap="round"/>
<path d="M85 61.1223L89 65.1223" stroke="white" stroke-linecap="round"/>
<path d="M131.918 106.106C131.918 106.129 131.913 106.151 131.905 106.172C131.896 106.192 131.884 106.211 131.868 106.227C131.852 106.243 131.833 106.256 131.812 106.264C131.792 106.273 131.769 106.277 131.747 106.277H91.5642C91.5189 106.277 91.4755 106.259 91.4435 106.227C91.4115 106.195 91.3936 106.151 91.3936 106.106C91.3936 106.061 91.4115 106.017 91.4435 105.985C91.4755 105.953 91.5189 105.935 91.5642 105.935H131.747C131.769 105.935 131.792 105.94 131.812 105.948C131.833 105.957 131.852 105.969 131.868 105.985C131.884 106.001 131.896 106.02 131.905 106.041C131.913 106.061 131.918 106.084 131.918 106.106Z" fill="#CCCCCC"/>
<path d="M56 46C58.7614 46 61 43.7614 61 41C61 38.2386 58.7614 36 56 36C53.2386 36 51 38.2386 51 41C51 43.7614 53.2386 46 56 46Z" fill="#6C63FF"/>
<path d="M54.1294 43L58.1294 39" stroke="white" stroke-linecap="round"/>
<path d="M54 39.1223L58 43.1223" stroke="white" stroke-linecap="round"/>
</g>
<defs>
<clipPath id="clip0_81_6014">
<rect width="132" height="106.277" fill="white" transform="translate(0.75)"/>
</clipPath>
</defs>
</svg>
